# xmcd
#
# Track frame offsets: 
#        182
#        6760
#        18092
#        25915
#        39067
#        47622
#        55072
#        64207
#        71997
#        84132
#        92895
#        103320
#        113942
#        123372
#
# Disc length: 1743 seconds
#
# Revision: 1
# Processed by: cddbd v1.5.2PL0 Copyright (c) Steve Scherf et al.
# Submitted via: ExactAudioCopy v1.0b4
#
DISCID=ae06cd0e
DTITLE=Jim Reeves - 28 Great Country Songs CD 2
DYEAR=1993
DGENRE=Country
TTITLE0=Have I told you lately that I love you
TTITLE1=I love you more
TTITLE2=Roly Poly
TTITLE3=How's the world treating you
TTITLE4=If you were mine
TTITLE5=The Oklahoma hills
TTITLE6=The wind up
TTITLE7=Till the end of the world
TTITLE8=Your old love letters
TTITLE9=I'd like to be
TTITLE10=Peace in the valley
TTITLE11=I missed me
TTITLE12=I'm getting better
TTITLE13=In a mansion stands my love
EXTD=
EXTT0=
EXTT1=
EXTT2=
EXTT3=
EXTT4=
EXTT5=
EXTT6=
EXTT7=
EXTT8=
EXTT9=
EXTT10=
EXTT11=
EXTT12=
EXTT13=
PLAYORDER=
